<svg width="31" height="22" viewBox="0 0 31 22" fill="none" xmlns="http://www.w3.org/2000/svg">
<path d="M9.3 11C12.2983 11 14.725 8.53973 14.725 5.5C14.725 2.46027 12.2983 0 9.3 0C6.30172 0 3.875 2.46027 3.875 5.5C3.875 8.53973 6.30172 11 9.3 11ZM13.02 12.5714H12.618C11.6105 13.0625 10.4916 13.3571 9.3 13.3571C8.10844 13.3571 6.99437 13.0625 5.98203 12.5714H5.58C2.49937 12.5714 0 15.1054 0 18.2286V19.6429C0 20.9442 1.04141 22 2.325 22H16.275C17.5586 22 18.6 20.9442 18.6 19.6429V18.2286C18.6 15.1054 16.1006 12.5714 13.02 12.5714ZM23.25 11C25.8172 11 27.9 8.88839 27.9 6.28571C27.9 3.68304 25.8172 1.57143 23.25 1.57143C20.6828 1.57143 18.6 3.68304 18.6 6.28571C18.6 8.88839 20.6828 11 23.25 11ZM25.575 12.5714H25.3909C24.7177 12.8071 24.0056 12.9643 23.25 12.9643C22.4944 12.9643 21.7823 12.8071 21.1091 12.5714H20.925C19.9369 12.5714 19.0262 12.8612 18.227 13.3277C19.4089 14.6192 20.15 16.333 20.15 18.2286V20.1143C20.15 20.2223 20.1258 20.3254 20.1209 20.4286H28.675C29.9586 20.4286 31 19.3728 31 18.0714C31 15.0317 28.5733 12.5714 25.575 12.5714Z" fill="#74B9FF"/>
</svg>
