<svg width="15" height="21" viewBox="0 0 15 21" fill="none" xmlns="http://www.w3.org/2000/svg">
<path d="M15 14.1145V0.940964C15 0.419513 14.6417 0 14.1964 0H3.21429C1.43973 0 0 1.68589 0 3.76385V16.31C0 18.388 1.43973 20.0739 3.21429 20.0739H14.1964C14.6417 20.0739 15 19.6544 15 19.1329V18.5056C15 18.2116 14.8828 17.945 14.702 17.7725C14.5614 17.1687 14.5614 15.4475 14.702 14.8437C14.8828 14.6751 15 14.4085 15 14.1145ZM4.28571 5.25371C4.28571 5.12433 4.37612 5.01847 4.48661 5.01847H11.5848C11.6953 5.01847 11.7857 5.12433 11.7857 5.25371V6.03785C11.7857 6.16723 11.6953 6.27309 11.5848 6.27309H4.48661C4.37612 6.27309 4.28571 6.16723 4.28571 6.03785V5.25371ZM4.28571 7.76295C4.28571 7.63357 4.37612 7.52771 4.48661 7.52771H11.5848C11.6953 7.52771 11.7857 7.63357 11.7857 7.76295V8.54709C11.7857 8.67647 11.6953 8.78233 11.5848 8.78233H4.48661C4.37612 8.78233 4.28571 8.67647 4.28571 8.54709V7.76295ZM12.7701 17.5647H3.21429C2.62165 17.5647 2.14286 17.004 2.14286 16.31C2.14286 15.62 2.625 15.0554 3.21429 15.0554H12.7701C12.7065 15.7259 12.7065 16.8942 12.7701 17.5647Z" fill="black"/>
</svg>
