<svg width="58" height="53" viewBox="0 0 58 53" fill="none" xmlns="http://www.w3.org/2000/svg">
<path d="M5.4375 0C2.43555 0 0 2.54353 0 5.67857V47.3214C0 50.4565 2.43555 53 5.4375 53H52.5625C55.5645 53 58 50.4565 58 47.3214V5.67857C58 2.54353 55.5645 0 52.5625 0H5.4375ZM5.4375 3.78571H17.4453C17.8191 3.78571 18.125 4.10513 18.125 4.49554V6.86161C18.125 7.25201 17.8191 7.57143 17.4453 7.57143H4.30469C3.93086 7.57143 3.625 7.25201 3.625 6.86161V5.67857C3.625 4.6375 4.44063 3.78571 5.4375 3.78571ZM53.6953 15.1429H4.30469C3.93086 15.1429 3.625 14.8234 3.625 14.433V10.1741C3.625 9.78371 3.93086 9.46429 4.30469 9.46429H19.9375L23.3586 4.10513C23.4832 3.90402 23.6984 3.78571 23.925 3.78571H52.5625C53.5594 3.78571 54.375 4.6375 54.375 5.67857V14.433C54.375 14.8234 54.0691 15.1429 53.6953 15.1429ZM29 46.375C21.5008 46.375 15.4062 40.0103 15.4062 32.1786C15.4062 24.3469 21.5008 17.9821 29 17.9821C36.4992 17.9821 42.5938 24.3469 42.5938 32.1786C42.5938 40.0103 36.4992 46.375 29 46.375ZM29 21.7679C23.5059 21.7679 19.0312 26.4408 19.0312 32.1786C19.0312 37.9163 23.5059 42.5893 29 42.5893C34.4941 42.5893 38.9688 37.9163 38.9688 32.1786C38.9688 26.4408 34.4941 21.7679 29 21.7679ZM23.5625 34.0714C22.5656 34.0714 21.75 33.2196 21.75 32.1786C21.75 28.0025 25.0012 24.6071 29 24.6071C29.9969 24.6071 30.8125 25.4589 30.8125 26.5C30.8125 27.5411 29.9969 28.3929 29 28.3929C27.0063 28.3929 25.375 30.0964 25.375 32.1786C25.375 33.2196 24.5594 34.0714 23.5625 34.0714Z" fill="#74B9FF"/>
</svg>
