<svg width="32" height="32" viewBox="0 0 32 32" fill="none" xmlns="http://www.w3.org/2000/svg">
<g clip-path="url(#clip0_352_1315)">
<path d="M15.9999 7C16.6922 7 17.3688 6.79473 17.9444 6.41015C18.52 6.02556 18.9686 5.47894 19.2335 4.83939C19.4984 4.19985 19.5677 3.49612 19.4327 2.81719C19.2976 2.13825 18.9643 1.51461 18.4748 1.02513C17.9853 0.535644 17.3617 0.202301 16.6827 0.0672531C16.0038 -0.0677952 15.3001 0.00151652 14.6605 0.266423C14.021 0.53133 13.4744 0.979934 13.0898 1.55551C12.7052 2.13108 12.4999 2.80777 12.4999 3.5C12.4999 4.42826 12.8687 5.3185 13.5251 5.97487C14.1814 6.63125 15.0717 7 15.9999 7ZM26.9999 28H4.99992C4.73471 28 4.48035 28.1054 4.29282 28.2929C4.10528 28.4804 3.99992 28.7348 3.99992 29V31C3.99992 31.2652 4.10528 31.5196 4.29282 31.7071C4.48035 31.8946 4.73471 32 4.99992 32H26.9999C27.2651 32 27.5195 31.8946 27.707 31.7071C27.8946 31.5196 27.9999 31.2652 27.9999 31V29C27.9999 28.7348 27.8946 28.4804 27.707 28.2929C27.5195 28.1054 27.2651 28 26.9999 28ZM31.5543 11.51L29.7724 10.515C29.3074 10.2025 28.7156 10.3613 28.3793 10.8075C28.0443 11.2559 27.5896 11.6007 27.0674 11.8023C26.5453 12.0038 25.9768 12.0539 25.4274 11.9469C23.9812 11.6788 22.9999 10.3081 22.9999 8.8375C22.9999 8.61538 22.9117 8.40236 22.7546 8.2453C22.5976 8.08824 22.3845 8 22.1624 8H19.7393C19.3643 8 19.0137 8.25 18.9355 8.61938C18.7937 9.29291 18.4246 9.8972 17.8901 10.3309C17.3556 10.7645 16.6882 11.0012 15.9999 11.0012C15.3116 11.0012 14.6442 10.7645 14.1097 10.3309C13.5752 9.8972 13.2061 9.29291 13.0643 8.61938C12.9862 8.24938 12.638 8 12.2605 8H9.83742C9.6153 8 9.40228 8.08824 9.24522 8.2453C9.08816 8.40236 8.99992 8.61538 8.99992 8.8375C8.99992 10.4431 7.81242 11.8844 6.20805 11.9931C5.70953 12.0283 5.21021 11.937 4.75637 11.7278C4.30252 11.5186 3.90883 11.1982 3.6118 10.7963C3.2818 10.3531 2.69117 10.2056 2.23117 10.5125L0.445547 11.5125C0.242673 11.6477 0.0961586 11.8523 0.0335472 12.0879C-0.0290642 12.3235 -0.00345959 12.5738 0.105547 12.7919L6.51492 26H25.4849L31.8943 12.7894C32.0033 12.5713 32.0289 12.321 31.9663 12.0854C31.9037 11.8498 31.7572 11.6452 31.5543 11.51Z" fill="black"/>
</g>
<defs>
<clipPath id="clip0_352_1315">
<rect width="32" height="32" fill="white"/>
</clipPath>
</defs>
</svg>
