<svg width="17" height="23" viewBox="0 0 17 23" fill="none" xmlns="http://www.w3.org/2000/svg">
<path d="M7.51429 22.536C1.17643 13.0737 0 12.1025 0 8.625C0 3.86153 3.7496 0 8.375 0C13.0004 0 16.75 3.86153 16.75 8.625C16.75 12.1025 15.5736 13.0737 9.23571 22.536C8.81979 23.1547 7.93017 23.1547 7.51429 22.536ZM8.375 12.2187C10.3023 12.2187 11.8646 10.6098 11.8646 8.625C11.8646 6.64022 10.3023 5.03125 8.375 5.03125C6.44775 5.03125 4.88542 6.64022 4.88542 8.625C4.88542 10.6098 6.44775 12.2187 8.375 12.2187Z" fill="black"/>
</svg>
