<svg width="25" height="20" viewBox="0 0 25 20" fill="none" xmlns="http://www.w3.org/2000/svg">
<path d="M12.4998 15.6249C9.53691 15.6249 7.1385 13.3316 6.9178 10.4254L2.82019 7.25861C2.28153 7.93438 1.78583 8.64883 1.38584 9.43007C1.29648 9.60683 1.24992 9.80211 1.24992 10.0002C1.24992 10.1982 1.29648 10.3935 1.38584 10.5703C3.50417 14.7034 7.69787 17.4999 12.4998 17.4999C13.5509 17.4999 14.565 17.3436 15.5423 17.0913L13.5154 15.523C13.1806 15.5876 12.8407 15.6218 12.4998 15.6249ZM24.7582 17.8944L20.4399 14.557C21.7517 13.4515 22.8305 12.0962 23.6137 10.5699C23.703 10.3931 23.7496 10.1978 23.7496 9.99979C23.7496 9.80172 23.703 9.60643 23.6137 9.42968C21.4954 5.29652 17.3017 2.50007 12.4998 2.50007C10.4887 2.50251 8.51021 3.0088 6.74514 3.97271L1.77568 0.131742C1.71087 0.0813154 1.63677 0.0441529 1.5576 0.0223777C1.47843 0.000602447 1.39574 -0.00535874 1.31426 0.0048348C1.23279 0.0150283 1.15412 0.0411768 1.08275 0.0817859C1.01139 0.122395 0.948724 0.176669 0.898342 0.241506L0.131555 1.2286C0.0298364 1.35945 -0.0157428 1.52535 0.00484139 1.6898C0.0254256 1.85426 0.110487 2.0038 0.241319 2.10555L23.2239 19.8682C23.2887 19.9186 23.3628 19.9558 23.4419 19.9776C23.5211 19.9994 23.6038 20.0053 23.6853 19.9951C23.7667 19.9849 23.8454 19.9588 23.9168 19.9182C23.9881 19.8776 24.0508 19.8233 24.1012 19.7585L24.8684 18.7714C24.97 18.6405 25.0156 18.4745 24.9949 18.3101C24.9742 18.1456 24.8891 17.9961 24.7582 17.8944ZM17.5817 12.3476L16.0466 11.1609C16.1759 10.7873 16.2445 10.3953 16.2497 9.99998C16.2573 9.42118 16.1291 8.84867 15.8753 8.32842C15.6216 7.80817 15.2493 7.35468 14.7885 7.0044C14.3276 6.65411 13.7911 6.41679 13.2219 6.31149C12.6527 6.20618 12.0668 6.23584 11.5111 6.39807C11.7467 6.71725 11.8741 7.10333 11.8748 7.50001C11.8689 7.63201 11.8488 7.76299 11.8146 7.89063L8.93926 5.66839C9.93807 4.83372 11.1981 4.37601 12.4998 4.37505C13.2386 4.37464 13.9702 4.51985 14.6528 4.80239C15.3355 5.08492 15.9557 5.49923 16.4781 6.02164C17.0005 6.54404 17.4148 7.16429 17.6974 7.84693C17.9799 8.52956 18.1251 9.26119 18.1247 9.99998C18.1247 10.8449 17.9181 11.632 17.5817 12.3476Z" fill="#74B9FF"/>
</svg>
