<svg width="32" height="20" viewBox="0 0 32 20" fill="none" xmlns="http://www.w3.org/2000/svg">
<path d="M18.1723 0C13.1739 0 8.80894 3.4043 6.3795 6.31694L1.52784 2.21152C0.853957 1.64093 -0.152152 2.24881 0.0200695 3.12273L1.3634 9.945L0.0195139 16.7679C-0.152708 17.6418 0.853401 18.2491 1.52729 17.6791L6.37894 13.5737C8.80838 16.4857 13.1739 19.89 18.1723 19.89C25.8089 19.89 32 11.934 32 9.945C32 7.956 25.8089 0 18.1723 0ZM23.0295 11.4367C22.2934 11.4367 21.6961 10.7686 21.6961 9.945C21.6961 9.12081 22.2934 8.45325 23.0295 8.45325C23.7661 8.45325 24.3628 9.12081 24.3628 9.945C24.3628 10.7686 23.7656 11.4367 23.0295 11.4367Z" fill="black"/>
</svg>
