<svg width="22" height="23" viewBox="0 0 22 23" fill="none" xmlns="http://www.w3.org/2000/svg">
<path d="M11 22.991C12.7345 22.991 14.1414 21.7045 14.1414 20.1171H7.85865C7.85865 21.7045 9.26557 22.991 11 22.991ZM21.5772 16.2684C20.6285 15.3362 18.8532 13.9338 18.8532 9.34009C18.8532 5.85103 16.1779 3.05798 12.5705 2.37274V1.43694C12.5705 0.643478 11.8673 0 11 0C10.1328 0 9.42959 0.643478 9.42959 1.43694V2.37274C5.82218 3.05798 3.14682 5.85103 3.14682 9.34009C3.14682 13.9338 1.3716 15.3362 0.422846 16.2684C0.128204 16.558 -0.00242141 16.9042 3.39521e-05 17.2432C0.00543574 17.9797 0.637445 18.6802 1.57637 18.6802H20.4237C21.3626 18.6802 21.9951 17.9797 22 17.2432C22.0025 16.9042 21.8719 16.5576 21.5772 16.2684Z" fill="white"/>
</svg>
