<svg width="25" height="25" viewBox="0 0 25 25" fill="none" xmlns="http://www.w3.org/2000/svg">
<path d="M12.5 0C5.59476 0 0 5.55902 0 12.4202C0 19.2813 5.59476 24.8403 12.5 24.8403C19.4052 24.8403 25 19.2813 25 12.4202C25 5.55902 19.4052 0 12.5 0ZM12.5 4.8078C14.9496 4.8078 16.9355 6.78101 16.9355 9.21496C16.9355 11.6489 14.9496 13.6221 12.5 13.6221C10.0504 13.6221 8.06452 11.6489 8.06452 9.21496C8.06452 6.78101 10.0504 4.8078 12.5 4.8078ZM12.5 22.0358C9.54133 22.0358 6.89012 20.7036 5.11593 18.6202C6.06351 16.8473 7.91835 15.6254 10.0806 15.6254C10.2016 15.6254 10.3226 15.6454 10.4385 15.6805C11.0938 15.8908 11.7792 16.026 12.5 16.026C13.2208 16.026 13.9113 15.8908 14.5615 15.6805C14.6774 15.6454 14.7984 15.6254 14.9194 15.6254C17.0817 15.6254 18.9365 16.8473 19.8841 18.6202C18.1099 20.7036 15.4587 22.0358 12.5 22.0358Z" fill="#74B9FF"/>
</svg>
