<svg width="25" height="8" viewBox="0 0 25 8" fill="none" xmlns="http://www.w3.org/2000/svg">
<path d="M16.129 3.62903C16.129 5.63508 14.506 7.25806 12.5 7.25806C10.494 7.25806 8.87097 5.63508 8.87097 3.62903C8.87097 1.62298 10.494 0 12.5 0C14.506 0 16.129 1.62298 16.129 3.62903ZM21.371 0C19.3649 0 17.7419 1.62298 17.7419 3.62903C17.7419 5.63508 19.3649 7.25806 21.371 7.25806C23.377 7.25806 25 5.63508 25 3.62903C25 1.62298 23.377 0 21.371 0ZM3.62903 0C1.62298 0 0 1.62298 0 3.62903C0 5.63508 1.62298 7.25806 3.62903 7.25806C5.63508 7.25806 7.25806 5.63508 7.25806 3.62903C7.25806 1.62298 5.63508 0 3.62903 0Z" fill="#74B9FF"/>
</svg>
