<svg width="25" height="25" viewBox="0 0 25 25" fill="none" xmlns="http://www.w3.org/2000/svg">
<path d="M12.5 0C5.59627 0 0 5.59627 0 12.5C0 19.4037 5.59627 25 12.5 25C19.4037 25 25 19.4037 25 12.5C25 5.59627 19.4037 0 12.5 0ZM16.6477 18.0242C16.4511 18.2198 16.245 18.4249 16.0776 18.5927C15.9269 18.744 15.8206 18.9304 15.7666 19.1326C15.6905 19.4178 15.629 19.7061 15.5262 19.9829L14.6497 22.3443C13.9561 22.4955 13.2384 22.5806 12.5 22.5806V21.2006C12.5852 20.5645 12.1149 19.373 11.3594 18.6174C11.057 18.315 10.8871 17.9047 10.8871 17.4768V15.8634C10.8871 15.2767 10.5711 14.7374 10.0575 14.4536C9.33317 14.0529 8.30292 13.4929 7.59728 13.1376C7.01865 12.8463 6.48337 12.4753 6.00202 12.0413L5.96169 12.005C5.61747 11.6943 5.31185 11.3434 5.05141 10.9597C4.57863 10.2656 3.80847 9.12399 3.30796 8.38206C4.33972 6.08871 6.19909 4.24698 8.50958 3.24647L9.71976 3.85181C10.256 4.11996 10.8871 3.73034 10.8871 3.13054V2.56099C11.2898 2.49597 11.6996 2.45464 12.1164 2.43901L13.5428 3.86542C13.8579 4.18044 13.8579 4.69103 13.5428 5.00605L13.3065 5.24194L12.7853 5.7631C12.628 5.92036 12.628 6.17591 12.7853 6.33316L13.0217 6.56956C13.1789 6.72681 13.1789 6.98236 13.0217 7.13962L12.6184 7.54284C12.5427 7.61841 12.4401 7.66083 12.3332 7.66079H11.88C11.7752 7.66079 11.6744 7.70161 11.5988 7.7752L11.0988 8.26159C11.0375 8.32128 10.9968 8.39889 10.9824 8.48323C10.9681 8.56757 10.981 8.65428 11.0192 8.73085L11.8049 10.3029C11.939 10.5711 11.744 10.8866 11.4446 10.8866H11.1603C11.063 10.8866 10.9693 10.8513 10.8962 10.7878L10.4284 10.3816C10.3226 10.2897 10.1947 10.227 10.0572 10.1996C9.91981 10.1722 9.77763 10.1811 9.64466 10.2253L8.07359 10.749C7.95364 10.789 7.84933 10.8657 7.77542 10.9683C7.70151 11.0709 7.66176 11.1941 7.66179 11.3206C7.66179 11.5489 7.79083 11.7571 7.99496 11.8594L8.55343 12.1386C9.02772 12.376 9.55091 12.4995 10.0811 12.4995C10.6114 12.4995 11.2198 13.875 11.6941 14.1124H15.0585C15.4864 14.1124 15.8962 14.2823 16.1991 14.5847L16.8891 15.2747C17.1774 15.5631 17.3393 15.9541 17.3392 16.3619C17.3391 16.6709 17.278 16.9768 17.1593 17.262C17.0406 17.5473 16.8668 17.8063 16.6477 18.0242ZM21.0181 13.4199C20.7263 13.3468 20.4718 13.1678 20.3049 12.9173L19.3987 11.558C19.2661 11.3594 19.1953 11.1259 19.1953 10.8871C19.1953 10.6483 19.2661 10.4148 19.3987 10.2162L20.3861 8.73538C20.503 8.56048 20.6633 8.41835 20.8518 8.3246L21.506 7.99748C22.1875 9.35433 22.5806 10.8805 22.5806 12.5C22.5806 12.937 22.5433 13.3649 22.4889 13.7873L21.0181 13.4199Z" fill="white"/>
</svg>
