<svg width="10" height="15" viewBox="0 0 10 15" fill="none" xmlns="http://www.w3.org/2000/svg">
<path d="M4.48615 14.6974C0.702344 8.5263 0 7.89296 0 5.625C0 2.51839 2.23857 0 5 0C7.76143 0 10 2.51839 10 5.625C10 7.89296 9.29766 8.5263 5.51385 14.6974C5.26555 15.1009 4.73443 15.1009 4.48615 14.6974ZM5 7.96875C6.1506 7.96875 7.08333 6.91942 7.08333 5.625C7.08333 4.33057 6.1506 3.28125 5 3.28125C3.8494 3.28125 2.91667 4.33057 2.91667 5.625C2.91667 6.91942 3.8494 7.96875 5 7.96875Z" fill="black"/>
</svg>
