<svg width="25" height="19" viewBox="0 0 25 19" fill="none" xmlns="http://www.w3.org/2000/svg">
<path d="M25 6.62363C25 7.7772 23.9917 8.76357 22.8125 8.76357H17.937C18.7348 9.596 18.8328 11.1936 17.6294 12.2276C18.327 13.3423 17.7342 14.8164 16.8262 15.2704C17.2644 17.6698 15.7546 18.75 13.2812 18.75C13.1472 18.75 12.633 18.7401 12.5 18.7405C9.47407 18.7487 8.74541 17.2236 6.45845 16.8696C5.88848 16.7814 5.46875 16.289 5.46875 15.7122V7.33696L5.46885 7.33691C5.46938 6.44014 5.98677 5.58452 6.85869 5.19604C8.26914 4.56157 11.5175 2.80161 12.1094 1.42051C12.4901 0.532129 13.1535 0.000390829 14.0625 2.04357e-07C15.7335 -0.000683389 16.8824 1.71377 16.2167 3.26699C16.0418 3.67515 15.8109 4.08096 15.5257 4.48369H22.8125C23.9575 4.48369 25 5.48677 25 6.62363ZM4.6875 6.64062V16.0156C4.6875 16.6628 4.16284 17.1875 3.51562 17.1875H1.17188C0.524658 17.1875 0 16.6628 0 16.0156V6.64062C0 5.99341 0.524658 5.46875 1.17188 5.46875H3.51562C4.16284 5.46875 4.6875 5.99341 4.6875 6.64062ZM3.32031 14.8438C3.32031 14.3044 2.88311 13.8672 2.34375 13.8672C1.80439 13.8672 1.36719 14.3044 1.36719 14.8438C1.36719 15.3831 1.80439 15.8203 2.34375 15.8203C2.88311 15.8203 3.32031 15.3831 3.32031 14.8438Z" fill="#74B9FF"/>
</svg>
