<svg width="375" height="387" fill="none" xmlns="http://www.w3.org/2000/svg">
    <path opacity=".8" fill-rule="evenodd" clip-rule="evenodd" d="M-15.543 336.397c1.554 17.428 5.375 34.4 11.305 50.216l385.949.095L381.791 0l-126.27.404s-49.56-6.167-100.367 37.413a137.906 137.906 0 0 0-4.667 4.193c-7.041 6.577-13.541 14.055-19.397 22.318-15.5 22.052-25.292 48.19-28.366 75.714-2.45 21.572-8.661 48.989-23.778 71.706-.528.776-1.056 1.549-1.583 2.319-10.427 14.832-24.84 27.468-44.73 34.78-18.819 6.931-30.85 18.167-38.227 31.327-9.715 17.255-11.404 37.806-9.95 56.223Z" fill="#F5F5F5"/>
</svg>
