<svg width="25" height="25" viewBox="0 0 25 25" fill="none" xmlns="http://www.w3.org/2000/svg">
<g id="cloud-showers-heavy" clip-path="url(#clip0_1_59)">
<path id="Vector" d="M8.97948 18.0713C8.60839 17.8564 8.12987 17.9834 7.91503 18.3643L4.79003 23.833C4.57518 24.209 4.70702 24.6875 5.083 24.8975C5.20507 24.9658 5.3369 25 5.46874 25C5.73729 25 6.00097 24.8584 6.14745 24.6045L9.27245 19.1357C9.48729 18.7646 9.35546 18.2861 8.97948 18.0713ZM13.667 18.0713C13.2959 17.8564 12.8174 17.9834 12.6025 18.3643L9.47753 23.833C9.26268 24.209 9.39452 24.6875 9.7705 24.8975C9.89257 24.9658 10.0244 25 10.1562 25C10.4248 25 10.6885 24.8584 10.835 24.6045L13.9599 19.1357C14.1748 18.7646 14.043 18.2861 13.667 18.0713ZM4.29198 18.0713C3.92089 17.8564 3.44237 17.9834 3.22753 18.3643L0.102528 23.833C-0.112315 24.209 0.0195207 24.6875 0.395497 24.8975C0.517568 24.9658 0.649403 25 0.781239 25C1.04979 25 1.31347 24.8584 1.45995 24.6045L4.58495 19.1357C4.79979 18.7646 4.66796 18.2861 4.29198 18.0713ZM23.042 18.0713C22.6709 17.8564 22.1924 17.9834 21.9775 18.3643L18.8525 23.833C18.6377 24.209 18.7695 24.6875 19.1455 24.8975C19.2676 24.9658 19.3994 25 19.5312 25C19.7998 25 20.0635 24.8584 20.2099 24.6045L23.3349 19.1357C23.5498 18.7646 23.418 18.2861 23.042 18.0713ZM18.3545 18.0713C17.9834 17.8564 17.5049 17.9834 17.29 18.3643L14.165 23.833C13.9502 24.209 14.082 24.6875 14.458 24.8975C14.5801 24.9658 14.7119 25 14.8437 25C15.1123 25 15.376 24.8584 15.5224 24.6045L18.6474 19.1357C18.8623 18.7646 18.7305 18.2861 18.3545 18.0713ZM20.3125 6.25C20.2832 6.25 20.2588 6.25977 20.2344 6.25977C20.2881 6.00586 20.3125 5.74219 20.3125 5.46875C20.3125 3.31055 18.5644 1.5625 16.4062 1.5625C15.2051 1.5625 14.1455 2.11426 13.4277 2.96875C12.5195 1.21094 10.708 0 8.59374 0C5.57616 0 3.12499 2.44629 3.12499 5.46875C3.12499 5.8252 3.16405 6.16699 3.22753 6.50391C1.35741 7.11914 -1.06462e-05 8.8623 -1.06462e-05 10.9375C-1.06462e-05 13.5254 2.0996 15.625 4.68749 15.625H20.3125C22.9004 15.625 25 13.5254 25 10.9375C25 8.34961 22.9004 6.25 20.3125 6.25Z" fill="#74B9FF"/>
</g>
<defs>
<clipPath id="clip0_1_59">
<rect width="25" height="25" fill="white"/>
</clipPath>
</defs>
</svg>
