<svg width="25" height="25" viewBox="0 0 25 25" fill="none" xmlns="http://www.w3.org/2000/svg">
<path d="M12.4999 5.46875C13.0407 5.46875 13.5694 5.30838 14.0191 5.00793C14.4687 4.70747 14.8192 4.28042 15.0262 3.78078C15.2331 3.28113 15.2873 2.73134 15.1818 2.20093C15.0763 1.67051 14.8158 1.18329 14.4334 0.800881C14.051 0.418472 13.5638 0.158048 13.0334 0.0525415C12.503 -0.052965 11.9532 0.00118478 11.4535 0.208143C10.9539 0.415101 10.5268 0.765573 10.2264 1.21524C9.92593 1.6649 9.76556 2.19357 9.76556 2.73438C9.76556 3.45958 10.0536 4.15508 10.5664 4.66787C11.0792 5.18067 11.7747 5.46875 12.4999 5.46875ZM21.0937 21.875H3.90619C3.69899 21.875 3.50028 21.9573 3.35376 22.1038C3.20725 22.2503 3.12494 22.4491 3.12494 22.6563V24.2188C3.12494 24.426 3.20725 24.6247 3.35376 24.7712C3.50028 24.9177 3.69899 25 3.90619 25H21.0937C21.3009 25 21.4996 24.9177 21.6461 24.7712C21.7926 24.6247 21.8749 24.426 21.8749 24.2188V22.6563C21.8749 22.4491 21.7926 22.2503 21.6461 22.1038C21.4996 21.9573 21.3009 21.875 21.0937 21.875ZM24.6518 8.99219L23.2597 8.21485C22.8964 7.97071 22.434 8.09473 22.1713 8.44336C21.9096 8.79369 21.5544 9.06306 21.1464 9.22053C20.7385 9.37799 20.2944 9.41715 19.8652 9.3335C18.7353 9.12402 17.9687 8.05322 17.9687 6.9043C17.9687 6.73077 17.8998 6.56435 17.7771 6.44164C17.6543 6.31894 17.4879 6.25 17.3144 6.25H15.4213C15.1284 6.25 14.8544 6.44531 14.7934 6.73389C14.6826 7.26009 14.3942 7.73218 13.9766 8.07099C13.5591 8.4098 13.0377 8.59471 12.4999 8.59471C11.9622 8.59471 11.4408 8.4098 11.0232 8.07099C10.6057 7.73218 10.3173 7.26009 10.2065 6.73389C10.1454 6.44483 9.87348 6.25 9.57855 6.25H7.68549C7.51196 6.25 7.34553 6.31894 7.22283 6.44164C7.10012 6.56435 7.03119 6.73077 7.03119 6.9043C7.03119 8.15869 6.10346 9.28467 4.85004 9.36963C4.46057 9.39709 4.07048 9.32579 3.71591 9.16233C3.36134 8.99887 3.05378 8.74856 2.82172 8.43457C2.5639 8.08838 2.10248 7.97315 1.7431 8.21289L0.348084 8.99414C0.189589 9.09974 0.0751239 9.25959 0.0262087 9.44365C-0.0227064 9.62771 -0.0027028 9.82331 0.0824589 9.99365L5.08978 20.3125H19.9101L24.9174 9.9917C25.0026 9.82135 25.0226 9.62576 24.9737 9.4417C24.9248 9.25764 24.8103 9.09778 24.6518 8.99219Z" fill="#74B9FF"/>
</svg>
