<svg width="25" height="16" viewBox="0 0 25 16" fill="none" xmlns="http://www.w3.org/2000/svg">
<path id="Vector" d="M16.9805 0H13.625C13.3125 0 13.0117 0.117188 12.7812 0.328125L8.94141 3.84375C8.9375 3.84766 8.93359 3.85547 8.92969 3.85938C8.28125 4.46875 8.29297 5.44141 8.84766 6.04688C9.34375 6.58984 10.3867 6.73438 11.0391 6.15234C11.043 6.14844 11.0508 6.14844 11.0547 6.14453L14.1758 3.28516C14.4297 3.05469 14.8281 3.07031 15.0586 3.32422C15.293 3.57813 15.2734 3.97266 15.0195 4.20703L14 5.14062L19.6875 9.75781C19.8008 9.85156 19.9023 9.95312 19.9961 10.0586V2.5L17.8633 0.367188C17.6328 0.132813 17.3125 0 16.9805 0ZM21.25 2.50781V11.2539C21.25 11.9453 21.8086 12.5039 22.5 12.5039H25V2.50781H21.25ZM23.125 11.2539C22.7812 11.2539 22.5 10.9727 22.5 10.6289C22.5 10.2852 22.7812 10.0039 23.125 10.0039C23.4688 10.0039 23.75 10.2852 23.75 10.6289C23.75 10.9727 23.4688 11.2539 23.125 11.2539ZM0 12.5H2.5C3.19141 12.5 3.75 11.9414 3.75 11.25V2.50781H0V12.5ZM1.875 10.0039C2.21875 10.0039 2.5 10.2852 2.5 10.6289C2.5 10.9727 2.21875 11.2539 1.875 11.2539C1.53125 11.2539 1.25 10.9727 1.25 10.6289C1.25 10.2812 1.53125 10.0039 1.875 10.0039ZM18.9023 10.7305L13.0703 5.99609L11.8984 7.07031C10.7383 8.12891 8.96094 8.02734 7.92578 6.89844C6.875 5.75 6.95703 3.97266 8.09766 2.92578L11.293 0H8.01953C7.6875 0 7.37109 0.132813 7.13672 0.367188L5 2.5V11.2461H5.71484L9.25 14.4453C10.3203 15.3164 11.8945 15.1523 12.7656 14.082L12.7734 14.0742L13.4727 14.6797C14.0938 15.1875 15.0117 15.0898 15.5156 14.4688L16.7422 12.9609L16.9531 13.1328C17.4883 13.5664 18.2773 13.4883 18.7109 12.9492L19.082 12.4922C19.5195 11.9531 19.4375 11.168 18.9023 10.7305Z" fill="#74B9FF"/>
</svg>
